<?xml version="1.0" encoding="UTF-8"?><svg id="Layer_2" xmlns="http://www.w3.org/2000/svg" viewBox="0 0 598.24 129.56"><defs><style>.cls-1{fill:#c10230;}.cls-1,.cls-2{stroke-width:0px;}.cls-2{fill:#ffd040;}</style></defs><g id="Layer_3"><path class="cls-1" d="M168.87,27.16v18.43c0,3.01-1.17,4.41-3.69,4.41-1.98,0-3.65-.71-5.1-2.18-1.3-1.28-1.93-2.57-1.93-3.94v-16.71h-7.46v.59s2.42.72,2.6,2.6v20.41c-.18,1.89-2.6,2.6-2.6,2.6v.59h7.46v-2.65c2.18,2.01,4.71,3.02,7.52,3.02,5.27,0,8.05-2.96,8.05-8.55v-18.61h-4.86Z"/><path class="cls-1" d="M231.96,26.79c-2.46,0-4.87.76-7.14,2.25l-.29.19v5.36l1.07-.96c1.76-1.59,3.9-2.39,6.36-2.39,4.29,0,6.37,3.04,6.37,9.3s-2.08,9.33-6.37,9.33c-2.64,0-4.77-.8-6.34-2.37l-1.09-1.09v5.47l.3.19c2.27,1.45,4.67,2.19,7.13,2.19,7.45,0,11.23-4.62,11.23-13.72s-3.78-13.75-11.23-13.75Z"/><polygon class="cls-1" points="225.05 19.88 222.74 23.96 243.63 23.96 243.63 19.88 225.05 19.88"/><path class="cls-1" d="M261.67,26.7c-2.82,0-5.34,1.03-7.52,3.07v-2.6h-7.45v.59s2.37.71,2.59,2.55v23.65h4.86v-16.71c0-1.41.63-2.72,1.93-4,1.45-1.43,3.11-2.12,5.1-2.12,2.52,0,3.69,1.4,3.69,4.41v18.43h4.86v-18.65c0-5.64-2.79-8.61-8.05-8.61Z"/><path class="cls-1" d="M295.56,27.16h-4.86v22.48l-4.67.11c-1.98.04-3.49-.14-4.47-.54-1.5-.66-2.24-1.93-2.24-3.87,0-1.58.62-2.8,1.89-3.72,1.32-.95,2.75-1.34,4.4-1.19l1.09.1-1.91-4.29-.47.05c-.33.04-.67.06-1.02.06-3.2,0-3.57-1.43-3.57-2.51s.38-2.48,3.69-2.48c.67,0,1.36.08,2.04.23l.78.18v-4.5l-.52-.1c-.89-.17-1.79-.26-2.68-.26-2.31,0-4.26.58-5.79,1.72-1.59,1.18-2.39,2.87-2.39,5.03,0,1.53.51,2.86,1.51,3.96.47.5.99.89,1.55,1.17-2.28,1.5-3.43,3.82-3.43,6.93,0,2.49.71,4.45,2.11,5.84,1.66,1.64,4.3,2.47,7.85,2.47.1,0,.2,0,.3,0l10.79-.07v-23.6h0c.18-1.89,2.6-2.6,2.6-2.6v-.59h-2.6Z"/><polygon class="cls-1" points="336.51 19.88 336.51 17.38 331.59 17.38 331.59 23.96 348.55 23.96 350.86 19.88 336.51 19.88"/><path class="cls-1" d="M410.03,36.8h0c-2.14-.32-3.6-.65-4.38-.99-1.71-.65-1.71-1.47-1.71-1.74,0-.88.46-1.53,1.48-2.06.96-.54,2.18-.82,3.64-.82,3.12,0,5.7.93,7.67,2.76l1.07,1v-5.43l-.26-.19c-2.37-1.74-5.4-2.62-9.01-2.62-2.58,0-4.8.65-6.6,1.94-1.87,1.34-2.82,3.13-2.82,5.33,0,2.51,1.17,4.38,3.47,5.56,1.36.68,3.59,1.26,6.82,1.77,3.16.51,4.7,1.83,4.7,4.04,0,1.95-.62,4.53-6,4.53-3.14,0-5.69-.93-7.6-2.75l-1.08-1.04v5.59l.26.19c2.14,1.59,5.16,2.4,8.98,2.4,2.91,0,5.29-.66,7.08-1.97,2.09-1.57,3.15-3.94,3.15-7.02,0-4.68-2.98-7.53-8.86-8.48Z"/><path class="cls-1" d="M433.63,36.8h0c-2.14-.32-3.6-.65-4.38-.99-1.71-.65-1.71-1.47-1.71-1.74,0-.88.46-1.53,1.48-2.06.96-.54,2.18-.82,3.64-.82,3.12,0,5.7.93,7.67,2.76l1.07,1v-5.43l-.26-.19c-2.37-1.74-5.4-2.62-9.01-2.62-2.58,0-4.8.65-6.6,1.94-1.87,1.34-2.82,3.13-2.82,5.33,0,2.51,1.17,4.38,3.47,5.56,1.36.68,3.59,1.26,6.82,1.77,3.16.51,4.7,1.83,4.7,4.04,0,1.95-.62,4.53-6,4.53-3.14,0-5.69-.93-7.6-2.75l-1.08-1.04v5.59l.26.19c2.14,1.59,5.16,2.4,8.98,2.4,2.91,0,5.29-.66,7.08-1.97,2.09-1.57,3.15-3.94,3.15-7.02,0-4.68-2.98-7.53-8.86-8.48Z"/><path class="cls-1" d="M583.77,36.8h0c-2.14-.32-3.6-.65-4.38-.99-1.71-.65-1.71-1.47-1.71-1.74,0-.88.46-1.53,1.48-2.06.96-.54,2.18-.82,3.64-.82,3.12,0,5.7.93,7.67,2.76l1.07,1v-5.43l-.26-.19c-2.37-1.74-5.4-2.62-9.01-2.62-2.58,0-4.8.65-6.6,1.94-1.87,1.34-2.82,3.13-2.82,5.33,0,2.51,1.17,4.38,3.47,5.56,1.36.68,3.59,1.26,6.82,1.77,3.16.51,4.7,1.83,4.7,4.04,0,1.95-.62,4.53-6,4.53-3.14,0-5.69-.93-7.6-2.75l-1.08-1.04v5.59l.26.19c2.14,1.59,5.16,2.4,8.98,2.4,2.91,0,5.29-.66,7.08-1.97,2.09-1.57,3.15-3.94,3.15-7.02,0-4.68-2.98-7.53-8.86-8.48Z"/><path class="cls-1" d="M591.59,18.81c-1.48,0-2.69.39-3.59,1.17-.93.8-1.41,1.86-1.41,3.15v2.1h4.98v-1.14c0-.72.25-1.2,1.48-1.2h2.22l2.22-4.08h-5.9Z"/><path class="cls-1" d="M386.58,35.4c-4.64-.94-5.56-1.16-5.72-1.21-1.67-.46-2.27-.96-2.27-1.28,0-.34.47-.74,1.3-1.08,1.05-.43,2.31-.65,3.76-.65,3.71,0,6.66,1.12,8.79,3.33l1.1,1.14v-5.54l-.18-.19c-2.05-2.14-5.39-3.22-9.93-3.22-2.6,0-4.86.57-6.72,1.7-1.96,1.19-2.96,2.77-2.96,4.71s1.02,3.51,3.04,4.47c.49.24,1.14.48,1.94.71l.88.24c.91.23,1.97.46,3.21.69,4.82.87,7.26,2.5,7.26,4.86,0,4.18-3.39,6-10.47,5.72v-9.29h-4.86v13.22l.57.06c1.99.21,3.87.32,5.58.32,9.31,0,14.03-3.37,14.03-10.02,0-4.63-2.81-7.54-8.36-8.66Z"/><path class="cls-1" d="M194.63,33c3.6-3.14,6.7-5.83,6.7-5.83h-6.87l-10.15,8.81v-8.81h-7.45v.59s2.38.71,2.59,2.57v23.64h4.86v-11.85c1.14-1.05,3.72-3.32,6.52-5.78,1.76.67,4.23,2.23,4.1,4.71v12.93h4.86v-13.68c.26-3.77-2.57-6.15-5.16-7.28Z"/><path class="cls-1" d="M541.27,50.84v-15.9c0-2.41-.83-4.32-2.46-5.72l.1.05c1.12-.99,1.68-2.12,1.68-3.39v-.64h-5.09v.64c0,.58-.25.99-.8,1.31-1.24-.31-2.62-.48-4.15-.48-2.77,0-5.18.62-7.14,1.84-2.32,1.41-3.7,3.51-4.12,6.24l-.11.73h4.87l.08-.54c.17-1.16.83-2.05,1.99-2.72,1.23-.71,2.7-1.07,4.37-1.07,1.77,0,3.23.31,4.33.93.99.56,1.48,1.3,1.48,2.26,0,.45,0,1.84-3.1,2.42-2.09.25-4.2.49-6.34.72-5.51.8-8.3,3.67-8.3,8.54,0,5.29,3.11,8.08,9,8.08,1.23,0,2.65-.09,4.19-.25l.57-.06v-4.79l-.79.2c-1.35.34-2.6.51-3.72.51-4.03,0-4.49-2.11-4.49-3.69,0-2.55,1.68-3.95,5.14-4.29,3.79-.4,6.44-.89,8.03-1.49v10.18c.07,1.23.5,3.5,2.83,3.5h3.8v-.59s-1.63-.7-1.85-2.53Z"/><path class="cls-1" d="M462.81,27.16v18.43c0,3.01-1.17,4.41-3.69,4.41-1.98,0-3.65-.71-5.1-2.18-1.3-1.28-1.93-2.57-1.93-3.94v-16.71h-7.46v.59s2.42.72,2.6,2.6v20.41c-.18,1.89-2.6,2.6-2.6,2.6v.59h7.46v-2.65c2.18,2.01,4.71,3.02,7.52,3.02,5.27,0,8.05-2.96,8.05-8.55v-18.61h-4.86Z"/><path class="cls-1" d="M494.44,50.82v-15.82c0-2.51-.97-4.53-2.89-6.02.92-.92,1.41-1.96,1.41-3.11v-.64h-5.09v.64c0,.52-.22.91-.67,1.21-.99-.25-2.08-.39-3.27-.39-2.58,0-4.86.6-6.77,1.77-2.5,1.47-3.77,3.66-3.77,6.53v18.96h4.86v-8.41h0s0-3.03,2.77-3.03h3.73l.13-4.58h-4.4c-1.14,0-1.82.53-2.23,1.21v-3.73c0-1.81.59-4.22,5.69-4.22s5.69,2.41,5.69,4.22v18.55h6.68v-.59s-1.64-.71-1.85-2.55Z"/><path class="cls-1" d="M368.69,27.16h-4.86v22.48l-4.67.11c-1.98.04-3.49-.14-4.47-.54-1.5-.66-2.24-1.93-2.24-3.87,0-1.58.62-2.8,1.89-3.72,1.32-.95,2.75-1.34,4.4-1.19l1.09.1-1.91-4.29-.47.05c-.33.04-.67.06-1.02.06-3.2,0-3.57-1.43-3.57-2.51s.38-2.48,3.69-2.48c.67,0,1.36.08,2.04.23l.78.18v-4.5l-.52-.1c-.89-.17-1.79-.26-2.68-.26-2.31,0-4.26.58-5.79,1.72-1.59,1.18-2.39,2.87-2.39,5.03,0,1.53.51,2.86,1.51,3.96.47.5.99.89,1.55,1.17-2.28,1.5-3.43,3.82-3.43,6.93,0,2.49.71,4.45,2.11,5.84,1.66,1.64,4.3,2.47,7.85,2.47.1,0,.2,0,.3,0l10.79-.07v-23.6h0c.18-1.89,2.6-2.6,2.6-2.6v-.59h-2.6Z"/><path class="cls-1" d="M220.7,50.82v-15.69c0-2.34-.82-4.23-1.95-5.61-1.54-1.87-3.87-2.81-7.38-2.81-2.23,0-5.18.93-6.89,1.87l-.33.18v4.9c2.42-1.6,3.99-2.03,3.99-2.03h0c.81-.28,1.67-.43,2.71-.43,1.41,0,2.77.28,3.51.84.88.66,1.48,1.72,1.48,3.23v18.71h6.71v-.59s-1.64-.71-1.85-2.56Z"/><path class="cls-1" d="M316.09,50.82v-15.69c0-2.34-.82-4.23-1.95-5.61-1.54-1.87-3.87-2.81-7.38-2.81-2.23,0-5.18.93-6.89,1.87l-.33.18v4.9c2.42-1.6,3.99-2.03,3.99-2.03h0c.81-.28,1.67-.43,2.71-.43,1.41,0,2.77.28,3.51.84.88.66,1.48,1.72,1.48,3.23v18.71h6.71v-.59s-1.64-.71-1.85-2.56Z"/><path class="cls-1" d="M514.21,50.82v-15.69c0-2.34-.82-4.23-1.95-5.61-1.54-1.87-3.87-2.81-7.38-2.81-2.23,0-5.18.93-6.89,1.87l-.33.18v4.9c2.42-1.6,3.99-2.03,3.99-2.03h0c.81-.28,1.67-.43,2.71-.43,1.41,0,2.77.28,3.51.84.88.66,1.48,1.72,1.48,3.23v18.71h6.71v-.59s-1.64-.71-1.85-2.56Z"/><path class="cls-1" d="M343.21,50.84v-15.9c0-2.9-1.19-5.1-3.54-6.53-1.84-1.14-4.26-1.71-7.17-1.71s-5.18.62-7.14,1.84c-2.32,1.41-3.7,3.51-4.12,6.24l-.11.73h4.87l.08-.54c.17-1.16.83-2.05,1.99-2.72,1.23-.71,2.7-1.07,4.37-1.07,1.77,0,3.23.31,4.33.93.99.56,1.48,1.3,1.48,2.26,0,.45,0,1.84-3.1,2.42-2.09.25-4.2.49-6.34.72-5.51.8-8.3,3.67-8.3,8.54,0,5.29,3.11,8.08,9,8.08,1.23,0,2.65-.09,4.19-.25l.57-.06v-4.79l-.79.2c-1.35.34-2.6.51-3.72.51-4.03,0-4.49-2.11-4.49-3.69,0-2.55,1.68-3.95,5.14-4.29,3.79-.4,6.44-.89,8.03-1.49v10.18c.07,1.23.5,3.5,2.83,3.5h3.8v-.59s-1.63-.7-1.85-2.53Z"/><path class="cls-1" d="M568.07,50.88v-15.9.02s-.01-7.83-.01-7.83h-4.46l-2.76,2.41-3.41-2.93-.32.07c-3.4.8-6.16,2.42-8.19,4.82-2.12,2.54-3.2,5.61-3.2,9.13,0,3.89,1.01,7.1,3.02,9.55,2.25,2.61,5.4,3.93,9.36,3.93.7,0,1.45-.04,2.22-.13l.57-.06v-4.58l-.76.14c-.62.12-1.24.18-1.85.18-2.34,0-4.16-.79-5.58-2.43-1.42-1.64-2.13-3.85-2.13-6.59,0-2.18.62-4.15,1.84-5.85,1.09-1.48,2.42-2.53,3.97-3.11l4.42,3.64,2.39-2.2v7.16h0v10.89c.2,1.23.82,2.8,2.76,2.8h3.97v-.59s-1.63-.7-1.85-2.53Z"/><path class="cls-1" d="M148.09,75.12v4.36h0v2.58h.59s.7-2.34,2.53-2.58h4.24v21.8h5.15v-21.8h7.26v-4.36h-19.77Z"/><path class="cls-1" d="M188.67,75.16v10.34h-9.79v-10.34h-7.74s0,.58,0,.58c0,0,2.4.71,2.6,2.59v22.95h5.15v-11.13h9.79v11.13h5.15v-26.12h-5.15Z"/><path class="cls-1" d="M212.12,75.19l-.02-.07h-9.84v.59s2.42.72,2.6,2.6h0l-6.57,22.84-.03.12h5.12l1.54-5.6h8.04l1.42,5.53.02.07h5.12l-7.4-26.08ZM206.05,91.39l2.96-10.94,2.82,10.94h-5.78Z"/><path class="cls-1" d="M240.94,75.16l-4.99,17.96-4.94-17.89-.02-.07h-9.73s0,.58,0,.58c0,0,2.41.71,2.6,2.59v22.94h4.5v-20.05l5.63,19.98.02.07h3.91l5.72-20.06v20.06h4.5v-26.12h-7.21Z"/><path class="cls-1" d="M400.5,75.16v16.54c0,3.96-1.42,5.58-4.9,5.58s-4.9-1.62-4.9-5.58v-16.54h-7.74s0,.58,0,.58c0,0,2.41.72,2.6,2.6v13.14c0,3.79,1.3,10.15,10.04,10.15s10.04-6.36,10.04-10.15v-16.33h-5.15Z"/><path class="cls-1" d="M428.01,75.16v17.53l-10.09-17.48-.03-.05h-7.92s0,.58,0,.58c0,0,2.42.72,2.6,2.6h0v22.93h4.86v-18.32l10.49,18.27.03.05h4.93v-26.12h-4.86Z"/><path class="cls-1" d="M481.78,96.91v-7.06h8.87v-4.36h-8.87v-5.98h12.21v-4.36h-19.96s0,.58,0,.58c0,0,2.42.72,2.6,2.6v22.93h17.75v-4.36h-12.6Z"/><path class="cls-1" d="M513.67,89.67c2.98-.9,4.74-3.41,4.7-6.74-.04-4.94-3.1-7.78-8.39-7.78h-13.02s0,.58,0,.58c0,0,2.36.71,2.59,2.55v22.98h5.15v-10.56h4.12l4.86,10.5.03.06h5.71l-5.73-11.6ZM508.25,86.5h-3.57v-7.13h4.43c2.72,0,4.11,1.2,4.11,3.57,0,2.14-.84,3.57-4.97,3.57Z"/><path class="cls-1" d="M437.66,75.15v.59s2.42.72,2.6,2.6v22.93h4.88v-26.12h-7.48Z"/><path class="cls-1" d="M465.93,75.16l-4.77,18.94-4.08-16.97h0c-.72-1.98-2.56-1.98-2.56-1.98h-4.75v.59s1.97.61,2.47,2.13l6.17,23.33.02.07h5.68l6.88-26,.03-.12h-5.08Z"/><path class="cls-1" d="M541.89,75.15v.59s2.42.72,2.6,2.6v22.93h4.88v-26.12h-7.48Z"/><path class="cls-1" d="M272.08,75.16l-4.99,17.96-4.94-17.89-.02-.07h-9.73s0,.58,0,.58c0,0,2.41.71,2.6,2.59v22.94h4.5v-20.05l5.63,19.98.02.07h3.91l5.72-20.06v20.06h4.5v-26.12h-7.21Z"/><path class="cls-1" d="M297.44,75.19l-.02-.07h-9.84v.59s2.42.72,2.6,2.6h0l-6.57,22.84-.03.12h5.12l1.54-5.6h8.04l1.42,5.53.02.07h5.12l-7.4-26.08ZM291.37,91.39l2.96-10.94,2.82,10.94h-5.78Z"/><path class="cls-1" d="M317.16,85.01c-2.71-1.05-5.21-1.72-5.14-3.53.08-1.99,2.48-2.5,3.83-2.5.37,0,2.64,0,4.71.74,1.67.6,3.15,1.52,3.85,2.12v-4.95c-2.62-1.53-4.65-2.11-8.7-2.11-4.98,0-9.06,2.9-8.55,7.19.5,4.22,4.53,5.7,8.21,7.18,2.96,1.19,5.51,2.33,5.51,4.53,0,2.77-2.4,3.58-4.47,3.58-1.91,0-4.3-.84-6.22-2.39-1.53-1.23-2.37-2.3-2.58-2.58v5.57c1.94,2.73,6.43,3.78,8.68,3.75,6.14-.08,9.53-2.96,9.53-8.16,0-4.93-4.96-7.02-8.66-8.45Z"/><path class="cls-1" d="M341.12,75.19l-.02-.07h-9.84v.59s2.42.72,2.6,2.6h0l-6.57,22.84-.03.12h5.12l1.54-5.6h8.04l1.42,5.53.02.07h5.12l-7.4-26.08ZM335.05,91.39l2.96-10.94,2.82,10.94h-5.78Z"/><path class="cls-1" d="M350.23,75.12v4.36h0v2.58h.59s.7-2.34,2.53-2.58h4.24v21.8h5.15v-21.8h7.26v-4.36h-19.77Z"/><path class="cls-1" d="M554.21,75.12v4.36h0v2.58h.59s.7-2.34,2.53-2.58h4.24v21.8h5.15v-21.8h7.26v-4.36h-19.77Z"/><path class="cls-1" d="M592.86,75.16l-4.39,10.12-3.53-8.15c-.72-1.98-2.56-1.98-2.56-1.98h-4.92v.59s1.61.49,2.29,1.71l6.15,13.41v10.42h5.15v-10.42l7.2-15.7h-5.38Z"/><path class="cls-1" d="M532.03,85.01c-2.71-1.05-5.21-1.72-5.14-3.53.08-1.99,2.48-2.5,3.83-2.5.37,0,2.64,0,4.71.74,1.67.6,3.15,1.52,3.85,2.12v-4.95c-2.62-1.53-4.65-2.11-8.7-2.11-4.98,0-9.06,2.9-8.55,7.19.5,4.22,4.53,5.7,8.21,7.18,2.96,1.19,5.51,2.33,5.51,4.53,0,2.77-2.4,3.58-4.47,3.58-1.91,0-4.3-.84-6.22-2.39-1.53-1.23-2.37-2.3-2.58-2.58v5.57c1.94,2.73,6.43,3.78,8.68,3.75,6.14-.08,9.53-2.96,9.53-8.16,0-4.93-4.96-7.02-8.66-8.45Z"/><circle class="cls-2" cx="64.76" cy="64.78" r="63.78"/><rect class="cls-2" x="51.25" y="101.01" width="24.65" height="9.56"/><path class="cls-1" d="M123.15,64.57c0-32.18-26.18-58.35-58.35-58.35S6.45,32.4,6.45,64.57s26.18,58.35,58.35,58.35,58.35-26.18,58.35-58.35ZM109.38,98.58s0-.06-.01-.09c-.36-2.02-3.11-3.77-4.27-4.43-2.05-1.16-3.23-2.42-3.4-3.64-.08-.6.08-1.09.26-1.42l.08-.14c.62.46,2.13,1.55,5.79,4.05,1.57,1.07,2.37,2.22,2.39,3.42.01.86-.38,1.64-.83,2.25ZM87.8,96.02c-.15.7-.78,1.13-1.05,1.29l-4.57,2.64c-.27.15-.96.49-1.65.27-.51-.16-.95-.62-1.29-1.36l-.72-1.51s.07-.08.11-.12c.32-.37.62-.72.91-.75.24-.03.42-.24.42-.48s-.18-.45-.42-.48c-.29-.04-.59-.39-.91-.75-.49-.57-1.11-1.27-2.11-1.31v-1.61c3.48-.52,5.73-1.47,7.24-2.76h0s3.51,5.15,3.51,5.15c.46.66.64,1.26.53,1.79ZM88.22,97.81c.14,0,.28.02.41.05.41.11.75.37.95.73.21.36.26.78.15,1.19-.11.41-.37.75-.73.96l-.3.18s-.04.02-.06.03l-4.64,2.68c-.75.43-1.71.18-2.15-.58-.21-.36-.26-.78-.15-1.19.11-.41.37-.75.73-.95l.22-.13s0,0,0,0l4.56-2.63s0,0,0,0l.21-.12c.24-.14.51-.21.78-.21ZM77.89,96.6c-.44.51-.85.98-1.46.98h-22.74c-.61,0-1.02-.48-1.46-.98-.18-.21-.36-.42-.57-.6.2-.18.38-.39.57-.6.44-.51.85-.98,1.46-.98h22.74c.61,0,1.02.48,1.46.98.18.21.36.42.57.6-.2.18-.38.39-.57.6ZM54.3,110.19c1.56-1.01,2.58-2.69,3.06-5.03.66,1.56,2.38,2.63,3.95,3.6,1.15.71,2.25,1.4,2.73,2.14h-11.27c.52-.16,1.04-.39,1.53-.71ZM49.94,110.26c1.05-.44,2.2-1.27,2.75-2.87.1-.3.19-.6.28-.9.23-.77.47-1.58.97-2.4.75-1.24,1.92-2.47,2.73-2.9v1.66c-.16,3.21-1.14,5.41-2.89,6.54-1.2.77-2.6.95-3.84.89ZM61.81,107.93c-1.85-1.15-3.77-2.34-3.77-4.14v-3.08h6.42s0,6.1,0,6.1c0,.2.16.36.36.36s.36-.16.36-.36v-6.1h6.26c0,.45,0,1.34,0,3.08s-1.92,2.99-3.77,4.14c-1.18.73-2.31,1.43-2.93,2.29-.63-.86-1.76-1.56-2.93-2.29ZM68.19,108.76c1.62-1,3.41-2.11,4.01-3.76.46,2.41,1.49,4.16,3.09,5.19.49.32,1.01.55,1.53.71h-11.36c.48-.74,1.58-1.43,2.73-2.14ZM75.81,109.37c-1.76-1.13-2.73-3.33-2.89-6.52v-1.76c.81.33,2.1,1.65,2.9,2.98.5.83.74,1.63.97,2.41.09.3.18.6.28.9.55,1.59,1.69,2.42,2.73,2.86-1.27.08-2.75-.07-4-.88ZM65.04,99.71c-.06-.04-.13-.07-.21-.07s-.15.03-.21.07h-10.5v-1.16h21.42v1.16h-10.51ZM55.79,100.72h.25c-.96.64-2.05,1.89-2.71,2.99-.54.91-.8,1.75-1.04,2.57-.09.29-.17.58-.27.87-.52,1.52-1.66,2.23-2.63,2.57.49-.88.64-2.15.76-3.31.08-.68.15-1.33.28-1.7,1.33-3.74,5.11-3.98,5.37-3.99ZM81.9,111.86c.69,0,1.25.56,1.25,1.25s-.56,1.25-1.25,1.25h-34.1c-.69,0-1.25-.56-1.25-1.25s.56-1.25,1.25-1.25h34.1ZM77.76,107.15c-.1-.29-.19-.58-.28-.87-.24-.82-.5-1.66-1.04-2.57-.66-1.1-1.75-2.35-2.71-2.99h.07c.25.01,4.04.25,5.37,3.99.13.37.2,1.02.28,1.7.12,1.12.26,2.34.71,3.21-.91-.37-1.93-1.08-2.4-2.47ZM50.58,95.52c-.24.03-.42.24-.42.48s.18.45.42.48c.22.03.44.23.68.48l-.91,1.9c-.34.73-.77,1.19-1.29,1.35-.68.22-1.38-.12-1.65-.27l-4.35-2.51-.21-.12c-.27-.15-.91-.59-1.06-1.29-.12-.53.06-1.13.53-1.79l3.55-5.2c1.51,1.32,3.76,2.3,7.29,2.82v1.68c-.74.19-1.24.76-1.66,1.24-.32.37-.62.72-.91.75ZM47.72,103.05c-.43.75-1.4,1.01-2.15.58l-4.64-2.68s-.01,0-.02-.01l-.34-.19c-.36-.21-.62-.55-.73-.95-.11-.41-.05-.83.15-1.19.29-.5.82-.79,1.36-.79.27,0,.54.07.78.21l4.57,2.64.21.12h0s.22.13.22.13c.75.43,1.01,1.4.58,2.15ZM25.74,83.78c-.21-.36-.26-.78-.15-1.19.11-.41.37-.75.73-.95.24-.14.51-.21.78-.21.14,0,.28.02.41.05.41.11.75.37.95.73l2.89,5c.21.36.26.78.15,1.19-.11.41-.37.75-.73.95-.75.43-1.71.18-2.15-.58l-2.88-5ZM27.01,88.05l-5.4,3.81c-.13.09-.25.17-.38.26-.09.06-.17.12-.25.18l-.21.15c-1.61,1.12-3.75.48-4.54.17.13-.84.64-3.01,2.42-3.85l6.93-3.22,1.44,2.49ZM29.43,81.95c-.15-.27-.49-.96-.27-1.65.16-.51.62-.95,1.36-1.29l10.05-4.83c.13.28.25.57.36.89.73,2.04,1.09,3.95,1.45,5.81.07.37.14.73.21,1.09l-7.45,5.08c-.66.46-1.26.64-1.79.52-.7-.15-1.13-.78-1.29-1.06l-2.64-4.56ZM41.83,74.74c-1.14-3.2-3.01-4.45-4.52-5.45-1.11-.74-1.98-1.33-2.32-2.5.22.25,1.49,1.59,4.16,2.33,3.26.91,4.54,2.35,5.45,6.16.26,1.1.43,2.31.61,3.59.67,4.84,1.42,10.22,7.74,11.97-7.91-1.28-8.64-5.01-9.62-10.15-.35-1.8-.74-3.84-1.49-5.95ZM34.97,68.66h0s-7.09.54-7.09.54c-.81.07-1.41-.08-1.81-.44-.53-.49-.59-1.26-.59-1.57v-5.26c0-.31.06-1.08.59-1.57.33-.3.81-.46,1.43-.46.12,0,.25,0,.39.02l24.66,1.86h.01s2.65.21,2.65.21h-.01s.35.02.35.02v5.17c-.71-.42-1.37-.85-1.43-1.21-.04-.23-.24-.4-.48-.4s-.44.17-.48.4c-.11.6-1.06,1.19-1.98,1.76-.08.05-.15.1-.23.14-.35-.33-.79-.6-1.18-.84-.49-.3-1.05-.65-1.1-.92-.04-.23-.24-.4-.48-.4s-.44.17-.48.4c-.05.28-.6.62-1.1.92-.44.27-.93.58-1.3.97-1.43-.72-3.19-1.19-5.39-1.31-2.63-.15-4.22-.59-5.29-1.49-.14-.12-.35-.15-.51-.07-.17.08-.28.25-.28.44,0,1.44.45,2.37,1.1,3.09ZM25.75,45.35l2.89-5c.21-.36.55-.62.95-.73.14-.04.28-.05.41-.05.27,0,.54.07.78.21.36.21.62.55.73.96s.05.83-.15,1.19l-2.88,5c-.43.75-1.4,1.01-2.15.58-.75-.43-1.01-1.4-.58-2.15ZM19.58,40.81c-.14-.07-.28-.13-.42-.2-.1-.05-.19-.08-.29-.12l-.23-.11c-1.78-.84-2.29-3.01-2.42-3.85.79-.3,2.92-.95,4.54.17l6.25,4.39-1.44,2.49-5.99-2.77ZM29.43,47.18l2.63-4.56c.15-.27.59-.91,1.29-1.06.1-.02.21-.03.32-.03.45,0,.94.19,1.47.56l20.43,13.94.35.51h0c-.04.07-.07.15-.07.23,0,.24.18.45.42.48.1.01.29.25.43.42.32.39.75.92,1.48.92h.39c-.02.06-.04.11-.05.16-.05.26-.63.61-1.09.89-.61.37-1.31.8-1.66,1.42l-2.97-.22-22.29-10.72c-.73-.34-1.19-.77-1.35-1.29-.22-.69.12-1.38.27-1.65ZM97.35,22.51c.87,0,1.57.71,1.57,1.57v1.3H30.68v-1.3c0-.87.71-1.57,1.57-1.57h65.09ZM60.88,21.54c.28-.25.64-.4,1.04-.4h5.77c.4,0,.76.15,1.04.4h-7.85ZM98.92,26.34v2.47H30.68v-2.47h68.24ZM98.92,29.78v1.23c0,.87-.71,1.57-1.57,1.57H32.25c-.87,0-1.57-.71-1.57-1.57v-1.23h68.24ZM77.2,44.26c.04,3.47-.82,5.95-2.55,7.38-1.04.86-2.25,1.21-3.27,1.33.1-.06.21-.13.31-.21,1.94-1.46,2.93-4.94,2.93-10.35,0-.98.3-5.54,5.74-7.27-.11.08-.22.17-.32.26-2.7,2.39-2.86,7.39-2.84,8.86ZM103.86,45.36c.21.36.26.78.15,1.19s-.37.75-.73.95c-.36.21-.78.26-1.19.15-.41-.11-.75-.37-.95-.73l-.12-.22s0,0,0,0l-1.32-2.28-1.44-2.5c-.21-.36-.26-.78-.15-1.19.11-.41.37-.75.73-.95.25-.14.52-.21.78-.21.54,0,1.07.28,1.36.79l2.88,5ZM102.59,41.09l5.4-3.81c.13-.09.25-.17.38-.26.09-.06.16-.12.25-.18l.21-.15c1.61-1.12,3.75-.48,4.54-.17-.13.84-.65,3.01-2.42,3.85l-6.93,3.22-1.44-2.49ZM99.79,46.53l.38.66c.15.27.49.96.27,1.65-.16.51-.62.95-1.36,1.29l-22.29,10.72-2.7.2h0c-.35-.62-1.06-1.05-1.66-1.42-.39-.23-.85-.52-1.02-.75v-.29h.51c.73,0,1.16-.53,1.48-.92.14-.17.33-.4.43-.42.24-.03.42-.24.42-.48s-.17-.43-.4-.47l.18-.26,20.43-13.94c.66-.47,1.26-.64,1.79-.53.7.16,1.14.79,1.29,1.06l2.25,3.9ZM101.72,59.94c.8-.07,1.41.08,1.81.44.53.49.59,1.26.59,1.57v5.26c0,.31-.06,1.08-.59,1.57-.4.36-1.01.51-1.82.44l-7.01-.53c.67-.72,1.12-1.65,1.12-3.11,0-.19-.11-.36-.28-.44-.17-.08-.37-.05-.51.07-1.07.89-2.66,1.34-5.29,1.49-2.12.12-3.83.56-5.23,1.24-.36-.35-.81-.64-1.22-.89-.49-.3-1.05-.65-1.1-.92-.04-.23-.24-.4-.48-.4s-.44.17-.48.4c-.05.28-.6.62-1.1.92-.43.27-.91.57-1.27.95-.13-.08-.27-.17-.4-.25-.92-.57-1.87-1.16-1.97-1.76-.04-.23-.24-.4-.48-.4s-.44.17-.48.4c-.08.44-.6.87-1.23,1.29v-5.26l7.31-.55h0s20.09-1.51,20.09-1.51ZM58.05,70.8c-.59.7-.97,1.5-.97,2.46v16.79c-2.76-1.53-3.08-5.94-3.08-7.85v-10.94c0-.2-.16-.36-.36-.36s-.36.16-.36.36v10.94c0,1.71.25,5.3,2.15,7.43-1.21-.79-2.29-2.04-2.85-4.13-.32-1.2-.51-2.66-.72-4.21-.43-3.24-.92-6.89-2.69-9.73v-.27c0-1.16,1.28-1.95,2.53-2.72.78-.48,1.53-.95,1.98-1.51.4.4.98.75,1.62,1.13,1.16.69,2.46,1.47,2.74,2.63ZM73.62,34.71c-.25.16-.48.34-.71.52-.3-.24-.64-.45-.95-.64-.47-.28-1.04-.63-1.09-.89-.01-.06-.03-.11-.06-.15h5.72c-1.02.22-2.01.58-2.92,1.16ZM80.58,34.33c-3.35,1-6.68,3.54-6.68,8.07,0,6.41-1.42,8.85-2.62,9.76-.62.47-1.2.56-1.57.56.19-1.22.59-4.2,1.31-11.37.27-2.72,1.32-4.68,3.11-5.83,1.91-1.23,4.39-1.38,6.44-1.19ZM71.46,35.42c.26.16.52.32.75.48-.82.9-1.41,2.03-1.78,3.37-.04-.23-.09-.43-.14-.59-.34-1.04-1.18-1.81-2.07-2.47.27-.28.69-.54,1.11-.79.4-.24.78-.47,1.07-.74.29.27.67.5,1.07.74ZM69.92,33.71c-.05.26-.63.61-1.09.89-.48.29-1.02.62-1.4,1.06-.03-.02-.06-.04-.09-.06-.95-.65-1.85-1.26-1.97-1.93,0-.04-.03-.08-.04-.12h4.66s-.05.1-.06.15ZM66.78,36.39c1.1.75,2.23,1.52,2.59,2.6.36,1.1.45,5.02.02,8.62l-.72,5.42h-3.51v-15.16c0-.2-.16-.36-.36-.36s-.36.16-.36.36v15.16h-3.31l-.72-5.43c-.42-3.81-.35-7.6-.02-8.61.35-1.08,1.49-1.85,2.59-2.6.74-.5,1.44-.98,1.9-1.55.46.57,1.17,1.06,1.9,1.56ZM64.4,33.67c-.12.66-1.02,1.27-1.97,1.92-.03.02-.05.04-.08.05-.38-.41-.89-.73-1.35-1-.47-.28-1.04-.63-1.09-.89-.01-.07-.05-.13-.09-.19h4.61s-.04.07-.04.12ZM60.51,35.46c.39.23.78.47,1.05.73-.9.66-1.75,1.44-2.09,2.5-.04.14-.08.31-.12.51-.36-1.29-.94-2.37-1.72-3.25.23-.17.49-.33.75-.49.4-.24.78-.47,1.07-.74.29.27.67.5,1.07.74ZM58.97,33.74c-.05.26-.63.61-1.09.89-.31.19-.64.39-.95.63-.24-.2-.48-.39-.75-.56-.9-.58-1.9-.94-2.91-1.16h5.79c-.04.06-.07.12-.09.19ZM55.66,35.52c1.79,1.15,2.84,3.12,3.11,5.83.72,7.13,1.12,10.11,1.31,11.35-.29.04-1.02.06-1.81-.54-1.19-.91-2.62-3.35-2.62-9.76,0-4.51-3.3-7.05-6.63-8.06,2.08-.21,4.65-.1,6.63,1.18ZM59.54,54s.04,0,.05,0h1.1s0,0,0,0h8.39s0,0,0,0h1.1c.08,0,.16,0,.24,0,0,0,0,0,0,0v.96h-10.91v-.97ZM71.93,55.93c.25,0,.45.21.73.56.08.09.16.19.24.28-.09.09-.17.19-.24.28-.28.35-.48.56-.73.56h-13.74c-.25,0-.45-.21-.73-.56-.08-.09-.16-.19-.24-.29.09-.09.17-.19.24-.28.28-.35.48-.56.73-.56h13.74ZM76.03,67.09c.46.54,1.19.99,1.94,1.46,1.24.77,2.53,1.57,2.53,2.72v.31c-1.75,2.84-2.24,6.47-2.66,9.7-.21,1.55-.4,3.01-.72,4.21-.62,2.35-1.9,3.63-3.29,4.4,2.12-2.09,2.39-5.91,2.39-7.69v-10.94c0-.2-.16-.36-.36-.36s-.36.16-.36.36v10.94c0,1.91-.32,6.33-3.08,7.85,0-3.88,0-13.82,0-16.79,0-.88-.32-1.63-.82-2.28.2-1,1.36-1.72,2.49-2.43.75-.47,1.48-.92,1.94-1.46ZM79.7,68.53c.27-.24.62-.46.96-.68.39-.24.78-.48,1.06-.76.29.28.67.51,1.06.76.29.18.58.37.83.57-.91.57-1.67,1.24-2.3,2.01-.27-.77-.9-1.37-1.62-1.9ZM73.36,67.87c-.86.54-1.76,1.13-2.29,1.92v-8.11c0-.2-.16-.36-.36-.36s-.36.16-.36.36v8.08c-.61-.48-1.29-.92-1.96-1.33v-6.55c0-.56.72-.99,1.42-1.41.4-.24.78-.47,1.07-.74.29.27.67.5,1.07.74.7.42,1.42.86,1.42,1.41v5.99ZM64.66,70.68c-.2,0-.36.16-.36.36v20.1h-4.64c-.15-.04-.31-.08-.49-.12-.35-.08-.74-.17-1.13-.28v-17.48c0-1.8,1.92-2.99,3.77-4.14,1.18-.73,2.31-1.43,2.93-2.29.63.86,1.76,1.56,2.93,2.29,1.85,1.15,3.77,2.34,3.77,4.14,0,3.19,0,14.4,0,17.54-.32.08-.64.16-.93.23-.17.04-.33.08-.49.12h-5v-20.1c0-.2-.16-.36-.36-.36ZM66,60.47c.7.42,1.42.86,1.42,1.41v5.94c-1.12-.72-2.06-1.43-2.2-2.23-.02-.12-.09-.23-.19-.3.03-.05.05-.11.05-.18v-3.44c0-.2-.16-.36-.36-.36s-.36.16-.36.36v3.44c0,.07.03.14.07.2-.08.07-.14.17-.16.28-.12.71-.87,1.34-1.82,1.98v-5.7c0-.56.72-.99,1.42-1.41.4-.24.78-.47,1.07-.74.29.27.67.5,1.07.74ZM65.35,58.59h5.1c-.02.06-.04.11-.05.16-.05.26-.63.61-1.09.89-.48.29-1.02.62-1.4,1.06-.38-.44-.92-.77-1.4-1.06-.47-.28-1.04-.63-1.09-.89-.01-.06-.03-.11-.06-.16ZM64.46,58.75c-.05.26-.63.61-1.09.89-.48.29-1.02.62-1.4,1.06-.38-.44-.92-.77-1.4-1.06-.39-.23-.85-.52-1.02-.75v-.29h4.98s-.05.1-.06.16ZM60.07,60.47c.7.42,1.42.86,1.42,1.41v6.31c-.06.04-.12.07-.18.11-.71.44-1.45.9-2.11,1.42v-8.05c0-.2-.16-.36-.36-.36s-.36.16-.36.36v7.78c-.49-.69-1.23-1.22-1.96-1.69v-5.89c0-.56.72-.99,1.42-1.41.4-.24.78-.47,1.07-.74.29.27.67.5,1.07.74ZM48.36,70.42c-.6-.72-1.31-1.36-2.15-1.91.26-.23.6-.44.93-.65.39-.24.78-.48,1.06-.76.29.28.67.51,1.06.76.3.19.6.38.84.58-.77.54-1.46,1.17-1.75,1.98ZM50.9,81.41c.21,1.58.41,3.07.74,4.33.65,2.45,1.95,3.89,3.36,4.77-7.59-1.04-8.35-6.47-9.08-11.74-.18-1.3-.35-2.52-.62-3.66-.96-4.03-2.47-5.72-5.96-6.69-1.21-.34-2.11-.81-2.73-1.22,1.07.28,2.21.4,3.28.46,9.25.52,10.18,7.55,11.01,13.76ZM54.12,92.29h21.42v1.16h-21.42v-1.16ZM74.75,90.48c1.39-.89,2.66-2.31,3.3-4.73.33-1.26.53-2.75.74-4.33.82-6.21,1.76-13.24,11.01-13.76.96-.05,1.99-.15,2.96-.38-.62.39-1.48.83-2.61,1.15-3.49.97-4.99,2.66-5.96,6.69-.27,1.14-.44,2.36-.62,3.66-.72,5.21-1.47,10.58-8.82,11.7ZM73.33,55.35l-.24.17c-.28-.29-.65-.55-1.16-.55h-.51v-1.02c1.17-.13,2.6-.52,3.85-1.55.09-.08.17-.17.26-.25l-2.19,3.2ZM80.68,36.12c.99-.88,2.29-1.22,3.86-1.01.24.03.48-.13.54-.37.06-.24-.08-.49-.32-.57-.11-.04-1.13-.37-2.6-.62h5.67c-.03.42-.21.88-.56,1.37l-9.98,14.63c.6-1.44.9-3.21.88-5.3-.02-1.37.12-6.01,2.51-8.13ZM47.63,33.55c-1.47.25-2.49.59-2.6.62-.24.08-.37.33-.32.57.06.24.29.4.54.37,1.57-.21,2.86.13,3.86,1.01,2.39,2.12,2.53,6.76,2.51,8.13-.03,2.58.43,4.66,1.34,6.24l-10.63-15.58c-.34-.49-.53-.94-.56-1.36h5.86ZM52.59,44.26c.02-1.47-.14-6.47-2.84-8.86-.04-.04-.09-.07-.14-.11,5.03,1.83,5.32,6.18,5.32,7.13,0,5.41.98,8.89,2.93,10.35.08.06.17.12.25.17-.94-.15-2.02-.51-2.96-1.28-1.74-1.43-2.6-3.92-2.56-7.39ZM54.53,52.39c1.32,1.09,2.83,1.47,4.04,1.57v1h-.39c-.64,0-1.05.4-1.35.76h0s-.56-.38-.56-.38l-2.67-3.9h0c.28.35.58.67.92.96ZM76.25,90.92c6.6-1.65,7.36-7.13,8.04-12.05.18-1.28.35-2.48.61-3.59.91-3.82,2.18-5.26,5.45-6.16,2.89-.8,4.14-2.31,4.19-2.37.03-.04.05-.07.06-.12.06-.03.12-.05.17-.08-.29,1.34-1.2,1.95-2.39,2.74-1.51,1-3.38,2.25-4.52,5.46-.75,2.11-1.14,4.15-1.49,5.95-1.01,5.25-1.74,9.03-10.13,10.23ZM87.32,80.87c.36-1.85.72-3.77,1.45-5.81.11-.3.22-.58.34-.84l9.98,4.8c.73.34,1.19.77,1.35,1.29.22.69-.12,1.38-.27,1.65l-2.64,4.57c-.16.27-.59.9-1.29,1.05-.53.12-1.13-.06-1.79-.53l-7.35-5.02h0c.08-.38.15-.76.23-1.16ZM98.25,87.22l.12-.21s0,0,0,0l1.32-2.28,1.44-2.5c.43-.75,1.4-1.01,2.15-.58.75.43,1.01,1.4.58,2.15l-2.89,5c-.21.36-.55.62-.95.73-.41.11-.83.05-1.19-.15-.75-.43-1.01-1.4-.58-2.15ZM110.03,88.33c.13.06.27.13.41.2.08.04.15.06.23.1l.29.13c1.78.84,2.29,3.01,2.42,3.85-.79.3-2.92.95-4.54-.17l-6.25-4.39,1.44-2.49,6.01,2.77ZM111.09,97.2c.06-.28.09-.57.09-.87-.01-.81-.29-1.58-.81-2.32.23.03.46.04.68.04.94,0,1.8-.22,2.37-.41-.73,1.22-1.51,2.41-2.33,3.57ZM114.28,92.13c-.14-.72-.47-1.84-1.2-2.81.15.01.31.03.46.03.72,0,1.37-.16,1.95-.49.28-.15.52-.34.74-.54-.6,1.3-1.25,2.57-1.95,3.81ZM115.01,88.02c-.97.54-2.26.47-3.82-.21l-.77-.36c-3.67-1.76-5.28-2.48-5.96-2.78v-.02c.19-.33.54-.79,1.17-1.05,1.14-.47,2.82-.08,4.87,1.12,1.15.68,4.04,2.18,5.97,1.49.03,0,.06-.02.08-.03-.3.69-.78,1.43-1.53,1.85ZM117.93,84.25c-.06-.11-.17-.21-.31-.24-.24-.06-.48.08-.56.31-.18.5-.48.81-.92.97-1.26.45-3.49-.43-5.15-1.41-2.34-1.38-4.27-1.78-5.73-1.18-.08.03-.16.07-.24.11-.06-.81-.51-1.57-1.26-2.01-.73-.42-1.58-.43-2.29-.12,0-.22-.04-.45-.11-.68-.25-.78-.88-1.41-1.86-1.87l-9.95-4.78c.98-1.68,2.23-2.52,3.36-3.27.26-.17.51-.34.75-.51l7.97.6c.16.01.32.02.47.02.87,0,1.56-.24,2.08-.71.18-.16.32-.35.43-.53.46.63,1.2,1.04,2.04,1.04s1.64-.44,2.1-1.12c.05.07.09.14.15.21.96,1.25,2.83,1.86,5.55,1.84,1.95-.02,4.3.33,5.17,1.35.3.36.4.78.31,1.3-.04.24.1.48.33.55.05.01.1.02.14.02.09,0,.17-.03.24-.07-.6,3.51-1.51,6.9-2.72,10.16ZM105.09,67.46v-5.77c0-.87.71-1.57,1.57-1.57s1.57.71,1.57,1.57v5.77c0,.87-.71,1.57-1.57,1.57s-1.57-.71-1.57-1.57ZM116.59,61.5l-.82.08c-4.07.31-5.83.49-6.57.58v-.16c.01-.38.11-.88.48-1.36.74-.95,2.34-1.45,4.62-1.45.05,0,.09,0,.14,0,1.32.02,4.59-.13,5.91-1.7.02-.02.04-.04.06-.07.09.75.04,1.63-.4,2.36-.57.96-1.73,1.54-3.42,1.72ZM120.9,64.56c-.53.66-2.06,2.28-4.02,2.12l-7.61-.68v-2.87l6.6-.6c.15-.01.29-.02.45-.03.1,0,.2-.02.3-.03l.27-.02c1.95-.17,3.49,1.46,4.02,2.12ZM116.23,67.61c1.89.14,3.16.74,3.78,1.76.44.74.49,1.61.4,2.37-.02-.02-.04-.05-.06-.07-1.28-1.51-4.36-1.7-5.77-1.7-.05,0-.1,0-.14,0-2.38.03-4.01-.48-4.76-1.45-.37-.47-.47-.98-.48-1.36v-.16c.77.09,2.62.28,7.04.61ZM121.22,69.73c-.09-.29-.21-.57-.37-.85-.41-.7-1.04-1.23-1.87-1.61,1.13-.48,1.98-1.3,2.47-1.86-.02,1.45-.1,2.89-.23,4.32ZM121.22,59.41c.13,1.42.2,2.85.23,4.3-.48-.55-1.33-1.37-2.45-1.85.82-.38,1.44-.91,1.85-1.6.16-.28.28-.56.37-.85ZM117.06,44.82c.08.23.32.36.56.31.14-.03.24-.12.31-.24,1.21,3.26,2.13,6.66,2.72,10.16-.11-.07-.25-.09-.39-.05-.23.07-.38.31-.33.55.09.52,0,.94-.31,1.3-.86,1.02-3.22,1.38-5.17,1.35-2.71-.03-4.59.6-5.55,1.84-.06.07-.1.14-.15.22-.46-.67-1.23-1.11-2.1-1.11s-1.58.41-2.04,1.05c-.12-.19-.25-.37-.43-.53-.61-.56-1.46-.79-2.54-.69l-22.2,1.68,20.06-9.65c.99-.46,1.62-1.09,1.86-1.87.07-.23.1-.46.11-.68.12.05.24.1.37.14.22.06.44.09.66.09.44,0,.87-.11,1.26-.34.59-.34,1-.89,1.18-1.54.04-.16.07-.32.08-.47.08.04.15.08.23.11.44.18.92.27,1.44.27,1.21,0,2.64-.48,4.28-1.45,1.66-.98,3.89-1.86,5.15-1.41.44.16.74.48.92.97ZM116.46,42.94c-1.93-.7-4.82.81-5.97,1.49-2.03,1.2-3.71,1.59-4.85,1.12-.64-.26-.99-.73-1.17-1.06h0c.71-.32,2.41-1.08,6.4-3,1.71-.82,3.11-.94,4.15-.36.75.42,1.23,1.15,1.53,1.85-.03-.01-.05-.02-.08-.03ZM116.23,40.82c-.22-.2-.46-.39-.74-.54-.71-.4-1.52-.54-2.42-.46.73-.97,1.06-2.1,1.21-2.83.7,1.25,1.35,2.52,1.96,3.83ZM111.09,31.94c.82,1.15,1.59,2.34,2.32,3.55-.7-.24-1.83-.51-3.03-.37.52-.73.79-1.51.8-2.31,0-.3-.03-.59-.09-.87ZM109.38,30.55c.45.61.84,1.39.83,2.25-.02,1.12-.73,2.2-2.11,3.21l-.66.47c-3.38,2.31-4.81,3.34-5.41,3.79l-.09-.15c-.18-.33-.34-.81-.26-1.4.16-1.23,1.34-2.49,3.4-3.66,1.16-.66,3.91-2.41,4.27-4.43,0-.03.01-.06.01-.09ZM100.18,21.34c.19.16.46.15.64-.01.09-.09.14-.2.15-.32,2.69,2.23,5.16,4.71,7.4,7.4-.12,0-.23.06-.32.15-.17.18-.17.45-.01.64.34.4.46.82.38,1.28-.24,1.32-2.12,2.81-3.8,3.76-2.37,1.34-3.68,2.81-3.88,4.37-.01.09-.02.18-.02.26-.73-.35-1.62-.35-2.37.09-.73.42-1.16,1.15-1.25,1.93-.19-.1-.4-.19-.64-.24-.81-.18-1.66.05-2.55.67l-18.38,12.55,12.55-18.38c.47-.66.71-1.31.73-1.92h8.54c1.4,0,2.54-1.14,2.54-2.54v-6.94c0-1.4-1.14-2.54-2.54-2.54.11,0,.22.02.32.03.41-.32.83-.55,1.23-.62.46-.08.88.04,1.28.38ZM98.73,20c-.89.16-1.73.79-2.45,1.54h-3.13c1.07-1.56,2.22-2.36,3.41-2.38.85,0,1.64.38,2.25.83-.03,0-.06,0-.09.01ZM97.43,18.28c-.27-.06-.54-.09-.83-.09-.02,0-.03,0-.05,0-.81.01-1.59.29-2.33.81.15-1.21-.13-2.35-.37-3.05,1.22.73,2.41,1.51,3.57,2.33ZM92.67,20.53l-.71,1.01h-4.41l1.02-2.21c.06-.13.13-.26.19-.4.04-.09.08-.18.12-.27l.12-.25c.84-1.78,3.01-2.29,3.85-2.42.3.79.95,2.92-.17,4.54ZM92.36,15.09c-.72.14-1.84.47-2.81,1.19.08-.89-.07-1.7-.46-2.4-.15-.28-.34-.52-.54-.74,1.3.6,2.57,1.25,3.81,1.95ZM88.25,14.35c.55.98.47,2.26-.21,3.82l-.35.77c-.49,1.02-.89,1.87-1.24,2.6h-2.65c.2-.79.58-1.69,1.16-2.66.68-1.15,2.18-4.04,1.49-5.97-.01-.03-.02-.06-.03-.09.69.3,1.42.78,1.84,1.53ZM72.52,9.75c.36-.3.78-.4,1.3-.31.24.04.47-.1.55-.33.04-.13.02-.27-.05-.39,3.51.6,6.9,1.51,10.16,2.72-.11.07-.2.17-.23.31-.05.24.08.48.31.56.5.18.81.48.97.92.45,1.26-.43,3.49-1.41,5.15-.68,1.16-1.12,2.21-1.32,3.15h-12.85c-.2-.37-.48-.69-.83-.93.07-.05.14-.09.21-.15,1.25-.96,1.87-2.83,1.84-5.55-.02-1.93.33-4.3,1.35-5.17ZM71.96,8.95s-.05.04-.07.06c-1.57,1.32-1.71,4.58-1.7,5.91.02,2.36-.48,4.01-1.45,4.76-.48.37-.98.47-1.36.48h-.16c.09-.77.28-2.62.61-7.04.14-1.89.74-3.16,1.76-3.78.74-.44,1.62-.49,2.36-.4ZM69.96,8.15c-.29.09-.57.21-.85.37-.7.41-1.23,1.04-1.61,1.87-.48-1.13-1.3-1.98-1.86-2.47,1.45.02,2.89.1,4.32.23ZM64.79,8.47c.66.53,2.28,2.06,2.12,4.02l-.68,7.61h-2.87l-.6-6.58c-.01-.15-.02-.3-.04-.46,0-.11-.02-.2-.03-.31l-.02-.26c-.16-1.96,1.46-3.49,2.12-4.02ZM63.94,7.93c-.55.48-1.37,1.33-1.85,2.45-.38-.81-.91-1.44-1.6-1.85-.28-.16-.56-.28-.85-.37,1.42-.13,2.85-.2,4.3-.23ZM60,9.36c.96.57,1.53,1.72,1.72,3.41l.08.85c.31,4.06.49,5.81.58,6.55h-.16c-.37-.01-.88-.11-1.35-.47-.98-.75-1.49-2.4-1.47-4.77.01-1.34-.13-4.59-1.7-5.91-.02-.02-.05-.04-.07-.06.75-.09,1.63-.04,2.36.4ZM44.08,13.23c.16-.44.48-.74.97-.92.23-.08.36-.32.31-.56-.03-.14-.12-.24-.23-.31,3.26-1.21,6.66-2.13,10.16-2.72-.07.11-.09.25-.05.39.07.23.3.38.55.33.52-.09.94,0,1.3.31,1.02.87,1.37,3.24,1.35,5.17-.02,2.72.6,4.59,1.84,5.55.07.06.14.1.22.15-.34.24-.63.55-.82.93h-12.87c-.2-.95-.64-2-1.32-3.15-.98-1.66-1.86-3.89-1.41-5.15ZM43.2,12.82s-.02.05-.03.08c-.7,1.93.81,4.82,1.49,5.97.58.98.96,1.87,1.16,2.66h-2.65c-.39-.82-.86-1.82-1.44-3.03-.82-1.71-.94-3.11-.36-4.15.42-.75,1.15-1.23,1.85-1.53ZM41.05,13.14c-.2.22-.39.46-.54.74-.4.71-.54,1.52-.46,2.42-.97-.73-2.1-1.06-2.83-1.21,1.25-.7,2.52-1.35,3.83-1.95ZM36.74,15.99c.84.13,3.01.65,3.85,2.42l1.45,3.12h-4.42l-.12-.16c-.08-.12-.17-.25-.26-.38-.06-.09-.12-.16-.18-.24l-.15-.22c-1.12-1.61-.48-3.75-.17-4.54ZM35.73,15.96c-.24.7-.51,1.83-.37,3.03-.73-.52-1.5-.79-2.31-.8-.3,0-.59.02-.86.08,1.15-.81,2.33-1.58,3.54-2.31ZM33,19.16s.02,0,.04,0c1.12.01,2.2.73,3.22,2.11l.19.27h-3.12c-.72-.75-1.56-1.38-2.45-1.54-.03,0-.06-.01-.09-.01.6-.44,1.36-.83,2.21-.83ZM21.55,28.55c-.09-.09-.2-.14-.32-.15,2.23-2.69,4.71-5.17,7.4-7.4,0,.12.06.23.15.32.18.17.45.17.64.01.4-.34.82-.47,1.28-.38.4.07.81.3,1.23.62.11-.01.21-.03.32-.03-1.4,0-2.54,1.14-2.54,2.54v6.94c0,1.4,1.14,2.54,2.54,2.54h8.55c.02.61.27,1.25.73,1.91l12.55,18.38-18.38-12.55c-.89-.63-1.75-.85-2.55-.68-.24.05-.45.14-.64.24-.01-.13-.03-.26-.06-.38-.18-.66-.59-1.2-1.18-1.54-.76-.44-1.64-.44-2.38-.08,0-.08-.01-.17-.02-.26-.21-1.56-1.51-3.03-3.88-4.37-1.68-.95-3.56-2.44-3.8-3.76-.08-.46.04-.88.38-1.28.16-.19.15-.46-.01-.64ZM20.22,30.56s0,.06.01.09c.36,2.02,3.11,3.77,4.27,4.43,2.05,1.16,3.23,2.42,3.4,3.64.08.59-.08,1.08-.26,1.42l-.08.14c-.62-.46-2.13-1.55-5.79-4.05-1.57-1.07-2.37-2.22-2.39-3.42-.01-.86.38-1.64.83-2.25ZM18.51,31.94c-.06.28-.09.57-.09.87.01.81.29,1.59.81,2.33-1.2-.15-2.35.13-3.05.37.73-1.22,1.51-2.41,2.33-3.57ZM15.32,37.01c.15.72.47,1.84,1.19,2.81-.89-.08-1.7.07-2.4.46-.28.15-.52.34-.74.54.6-1.3,1.25-2.57,1.95-3.81ZM14.58,41.12c.98-.55,2.26-.47,3.82.21l.76.35c3.68,1.76,5.28,2.49,5.97,2.78v.03c-.2.33-.55.79-1.17,1.05-1.14.47-2.83.08-4.87-1.12-.94-.56-3.05-1.67-4.85-1.67-.4,0-.78.05-1.12.18-.03.01-.06.02-.09.03.3-.69.78-1.42,1.53-1.84ZM11.67,44.89c.06.12.17.21.31.24.24.05.48-.08.56-.31.18-.5.48-.81.92-.97,1.26-.46,3.49.43,5.15,1.41,1.64.97,3.07,1.45,4.28,1.45.52,0,1-.09,1.44-.27.08-.03.16-.07.24-.11.06.81.51,1.57,1.26,2.01.4.23.83.34,1.26.34.35,0,.7-.08,1.03-.22,0,.22.04.44.11.67.25.78.88,1.41,1.86,1.87l20.06,9.65-22.19-1.67c-1.09-.1-1.94.13-2.55.69-.18.16-.32.34-.43.53-.46-.63-1.2-1.05-2.04-1.05s-1.64.44-2.1,1.12c-.05-.07-.09-.14-.15-.21-.96-1.25-2.83-1.87-5.55-1.84-1.93.01-4.3-.33-5.17-1.35-.3-.36-.4-.78-.31-1.3.04-.24-.1-.48-.33-.55-.13-.04-.27-.02-.39.05.6-3.51,1.51-6.91,2.72-10.16ZM24.51,61.68v5.77c0,.87-.71,1.57-1.57,1.57s-1.57-.71-1.57-1.57v-5.77c0-.87.71-1.57,1.57-1.57s1.57.71,1.57,1.57ZM13,67.65l.85-.08c4.06-.31,5.81-.49,6.56-.58v.17c-.01.37-.11.87-.47,1.34-.75.98-2.42,1.48-4.77,1.47-1.33-.01-4.59.13-5.91,1.7-.02.02-.04.05-.06.07-.09-.75-.04-1.63.4-2.37.57-.96,1.72-1.53,3.41-1.72ZM8.7,64.58c.53-.66,2.06-2.29,4.02-2.12l7.61.68v2.87l-6.58.6c-.15.01-.3.02-.46.03-.11,0-.2.02-.31.03l-.26.02c-1.95.16-3.49-1.46-4.02-2.12ZM13.36,61.53c-1.89-.14-3.16-.74-3.78-1.76-.44-.74-.49-1.61-.4-2.36.02.02.04.05.06.07,1.32,1.57,4.58,1.71,5.91,1.7,2.37-.02,4.01.48,4.76,1.45.37.47.47.98.48,1.35v.17c-.77-.09-2.62-.28-7.04-.61ZM8.38,59.41c.09.29.21.58.37.85.41.7,1.04,1.23,1.87,1.61-1.13.48-1.98,1.3-2.47,1.86.02-1.45.1-2.89.23-4.32ZM8.38,69.73c-.13-1.42-.2-2.85-.23-4.3.48.55,1.33,1.37,2.44,1.85-.81.38-1.43.91-1.84,1.6-.16.28-.28.56-.37.85ZM12.54,84.32c-.08-.23-.33-.36-.56-.31-.14.03-.24.12-.31.24-1.21-3.26-2.13-6.65-2.72-10.16.07.04.16.07.24.07.05,0,.1,0,.14-.02.23-.07.38-.31.33-.55-.09-.52,0-.94.31-1.3.86-1.02,3.24-1.38,5.17-1.35,2.72.02,4.59-.6,5.55-1.84.06-.07.1-.14.15-.22.46.67,1.23,1.11,2.1,1.11s1.58-.41,2.04-1.05c.12.19.25.37.43.53.52.47,1.22.71,2.08.71.15,0,.3,0,.46-.02l8.04-.61c.25.18.51.36.78.53,1.12.75,2.35,1.58,3.33,3.23l-10.01,4.81c-.99.46-1.62,1.09-1.86,1.87-.07.23-.1.46-.11.68-.12-.05-.24-.1-.37-.14-.66-.18-1.34-.09-1.93.25-.59.34-1,.89-1.18,1.54-.04.16-.07.32-.08.47-.08-.04-.15-.08-.23-.11-1.46-.6-3.38-.2-5.73,1.18-1.66.98-3.89,1.86-5.15,1.41-.44-.16-.74-.48-.92-.97ZM13.14,86.2c1.93.7,4.82-.81,5.97-1.49,2.03-1.2,3.71-1.59,4.85-1.12.63.26.98.72,1.17,1.05v.02c-.7.31-2.39,1.07-6.39,2.99-1.71.82-3.11.94-4.15.36-.75-.42-1.23-1.15-1.53-1.85.03.01.05.02.08.03ZM13.37,88.32c.22.2.46.39.74.54.58.33,1.23.49,1.95.49.15,0,.32-.02.48-.03-.73.97-1.06,2.1-1.21,2.83-.7-1.25-1.35-2.52-1.96-3.83ZM18.51,97.2c-.82-1.15-1.59-2.34-2.32-3.55.57.19,1.42.41,2.37.41.21,0,.43-.01.65-.04-.51.73-.79,1.5-.8,2.3,0,.3.03.59.09.87ZM20.22,98.59c-.45-.61-.84-1.39-.83-2.25.01-1.11.72-2.19,2.08-3.19l.72-.51c3.35-2.3,4.78-3.32,5.37-3.77l.08.15c.18.33.34.81.26,1.4-.16,1.23-1.34,2.49-3.4,3.66-1.16.66-3.91,2.41-4.27,4.43,0,.03-.01.06-.01.09ZM29.42,107.8c-.19-.16-.46-.15-.64.01-.09.09-.14.2-.15.32-2.69-2.24-5.17-4.71-7.4-7.4.12,0,.24-.05.32-.15.17-.18.17-.45.01-.64-.34-.4-.47-.82-.38-1.28.24-1.32,2.12-2.81,3.8-3.76,2.37-1.34,3.68-2.81,3.88-4.37.01-.09.02-.18.02-.27.34.17.72.26,1.1.26.43,0,.87-.11,1.26-.34.73-.42,1.16-1.15,1.25-1.93.19.1.4.19.64.24.18.04.35.06.54.06.65,0,1.32-.25,2.01-.73l7.11-4.85h0c.46,2.06,1.07,3.88,2.37,5.35l-3.64,5.34c-.63.89-.86,1.75-.68,2.55.05.24.14.45.24.64-.78.09-1.51.52-1.93,1.25-.34.59-.43,1.27-.25,1.93.04.16.1.31.17.45-.08,0-.17.01-.26.02-1.56.21-3.03,1.51-4.37,3.88-.95,1.68-2.44,3.56-3.76,3.8-.46.08-.88-.04-1.28-.38ZM30.87,109.14c2.02-.36,3.77-3.11,4.43-4.27,1.16-2.05,2.42-3.23,3.64-3.4.59-.08,1.08.08,1.42.26l.14.08c-.46.62-1.55,2.13-4.05,5.79-1.07,1.57-2.22,2.37-3.42,2.39-.86,0-1.64-.38-2.25-.83.03,0,.06,0,.09-.01ZM32.17,110.86c.27.06.54.09.83.09h.05c.81-.01,1.59-.29,2.33-.81-.15,1.21.13,2.35.37,3.05-1.22-.73-2.41-1.51-3.57-2.33ZM36.93,108.61l4.39-6.25,2.49,1.44-2.77,6c-.06.14-.13.27-.2.41-.05.1-.08.19-.12.28l-.11.24c-.84,1.78-3.01,2.29-3.85,2.42-.3-.79-.95-2.92.17-4.54ZM37.24,114.05c.72-.14,1.84-.47,2.81-1.19-.08.89.07,1.7.46,2.4.15.28.34.52.54.74-1.3-.6-2.57-1.25-3.81-1.95ZM41.35,114.79c-.55-.98-.47-2.27.21-3.83l.35-.75c1.77-3.69,2.49-5.29,2.78-5.98l.03.02c.34.19.8.54,1.05,1.16.46,1.14.07,2.82-1.12,4.85-.68,1.15-2.18,4.04-1.49,5.97.01.03.02.06.03.08-.69-.3-1.42-.78-1.84-1.53ZM55.78,119.7c-.24-.04-.48.1-.55.33-.04.13-.02.27.05.39-3.51-.6-6.91-1.51-10.16-2.72.11-.06.21-.17.24-.31.05-.24-.08-.48-.31-.56-.5-.18-.81-.48-.97-.92-.45-1.26.43-3.49,1.41-5.15,1.38-2.34,1.78-4.27,1.18-5.73-.04-.08-.07-.17-.11-.24.81-.06,1.58-.5,2.01-1.26.42-.73.43-1.58.12-2.29.22,0,.45-.04.68-.11.78-.25,1.41-.88,1.87-1.86l.74-1.54c.32.32.71.61,1.2.74v1.72c0,.08.02.15.05.21-1.36.61-2.92,1.76-3.7,3.97-.17.48-.24,1.15-.33,1.92-.15,1.33-.33,2.98-1.07,3.42-.21.13-.49.15-.84.07-.29-.09-.45-.15-.46-.15-.25-.1-.53.02-.62.27s.02.53.26.63c.17.07.34.13.5.17.19.06.44.13.72.2-1.16.07-2.09,1.03-2.09,2.21s.99,2.22,2.22,2.22h10.61c-.1,1.65-.49,3.35-1.32,4.06-.36.3-.78.4-1.3.31ZM57.64,120.19s.05-.04.07-.06c1.22-1.03,1.58-3.24,1.67-4.79h2.44c-.02.22-.03.44-.05.67-.14,1.89-.74,3.16-1.76,3.78-.74.44-1.61.49-2.36.4ZM59.62,120.98c.3-.09.59-.2.87-.37.7-.41,1.23-1.04,1.61-1.87.48,1.13,1.3,1.98,1.86,2.47-1.46-.02-2.91-.1-4.34-.23ZM64.81,120.67c-.66-.53-2.28-2.06-2.12-4.02l.12-1.31h4.01l.02.27c.01.16.02.31.04.47,0,.11.02.21.04.32l.02.25c.16,1.96-1.46,3.49-2.12,4.02ZM65.66,121.21c.55-.48,1.37-1.33,1.85-2.45.38.81.91,1.44,1.6,1.85.28.17.58.28.87.37-1.43.13-2.87.21-4.32.23ZM69.6,119.78c-.96-.57-1.54-1.72-1.73-3.41l-.08-.85c0-.06,0-.12-.01-.19h2.44c.09,1.56.44,3.76,1.67,4.8.02.02.05.04.07.06-.75.08-1.62.04-2.36-.4ZM85.52,115.91c-.16.44-.48.74-.97.92-.23.08-.36.32-.31.56.03.14.12.24.24.31-3.26,1.21-6.66,2.13-10.16,2.72.07-.11.09-.25.05-.39-.07-.23-.31-.38-.55-.33-.52.09-.94,0-1.3-.31-.83-.7-1.22-2.41-1.32-4.06h10.7c1.22,0,2.22-.99,2.22-2.22h0c0-1.2-.96-2.18-2.16-2.21.27-.07.5-.13.69-.19.16-.04.33-.1.5-.17.24-.1.36-.38.26-.63s-.38-.36-.62-.27c0,0-.18.07-.46.15-.34.08-.62.06-.84-.07-.74-.44-.93-2.09-1.07-3.42-.08-.77-.16-1.44-.33-1.92-.77-2.18-2.29-3.33-3.64-3.94.04-.07.07-.15.07-.24v-1.65c.51-.02.92-.22,1.27-.48l.58,1.21c.46.99,1.09,1.62,1.87,1.86.23.07.46.1.68.11-.05.12-.1.24-.14.37-.18.66-.09,1.34.25,1.93.44.76,1.21,1.2,2.02,1.26-.04.08-.08.15-.11.24-.6,1.45-.2,3.38,1.18,5.73.98,1.66,1.87,3.89,1.41,5.15ZM86.4,116.32s.02-.05.03-.08c.7-1.93-.81-4.82-1.49-5.97-1.2-2.03-1.59-3.71-1.12-4.85.25-.63.71-.98,1.05-1.16l.03-.02c.31.71,1.07,2.41,2.99,6.4.82,1.71.94,3.11.36,4.15-.42.75-1.15,1.23-1.85,1.53ZM88.55,116c.2-.22.39-.46.54-.74.4-.71.54-1.52.46-2.42.97.73,2.1,1.06,2.83,1.21-1.25.7-2.52,1.35-3.83,1.95ZM92.86,113.15c-.84-.13-3.01-.65-3.85-2.42l-3.22-6.93,2.49-1.44,3.81,5.4c.08.12.17.25.26.38.06.09.12.16.18.25l.15.21c1.12,1.61.48,3.75.17,4.54ZM93.87,113.18c.24-.7.51-1.83.37-3.03.73.52,1.5.79,2.31.8h.05c.29,0,.56-.04.83-.09-1.15.82-2.34,1.59-3.56,2.32ZM96.56,109.98c-1.12-.02-2.19-.73-3.2-2.09l-.49-.69c-2.3-3.36-3.33-4.79-3.78-5.39l.15-.09c.33-.17.81-.34,1.39-.26,1.23.16,2.49,1.34,3.66,3.4.66,1.16,2.41,3.91,4.43,4.27.03,0,.06,0,.09.01-.61.45-1.4.83-2.25.83ZM100.97,108.14c0-.12-.06-.23-.15-.32-.18-.17-.45-.17-.64-.01-.4.34-.82.47-1.28.38-1.32-.24-2.81-2.12-3.76-3.8-1.34-2.37-2.81-3.68-4.37-3.88-.09-.01-.18-.02-.26-.02.07-.14.12-.29.17-.44.18-.66.09-1.34-.25-1.93-.42-.73-1.15-1.16-1.93-1.25.1-.19.19-.4.24-.64.18-.8-.05-1.66-.67-2.55l-3.6-5.28c1.33-1.47,1.95-3.29,2.42-5.35l7.02,4.79c.7.49,1.37.74,2.02.74.18,0,.36-.02.53-.06.24-.05.45-.14.64-.25.01.13.03.26.06.39.18.66.6,1.2,1.18,1.54.4.23.83.34,1.26.34.39,0,.76-.09,1.11-.26,0,.09.01.17.02.26.21,1.56,1.51,3.03,3.88,4.37,1.68.95,3.56,2.44,3.8,3.76.08.46-.04.88-.38,1.28-.16.19-.15.46.01.64.09.09.2.14.32.15-2.24,2.69-4.71,5.17-7.4,7.4Z"/><path class="cls-1" d="M84.54,67.92h-.03s0,0,.01,0c0,0,.01,0,.02,0Z"/><path class="cls-1" d="M64.78,0C29,0,0,29,0,64.78s29,64.78,64.78,64.78,64.78-29,64.78-64.78S100.56,0,64.78,0ZM64.79,127.56c-34.67,0-62.77-28.1-62.77-62.77S30.12,2.01,64.79,2.01s62.77,28.1,62.77,62.77-28.1,62.77-62.77,62.77Z"/></g></svg>